<?xml version="1.0" encoding="UTF-8"?>
<svg id="Layer_2" data-name="Layer 2" xmlns="http://www.w3.org/2000/svg" viewBox="0 0 210.73 37">
  <defs>
    <style>
      .cls-1 {
        fill: #231f20;
      }
    </style>
  </defs>
  <g id="Layer_1-2" data-name="Layer 1">
    <path class="cls-1" d="M35,37c-8.27,0-15-7.18-15-16.01V8h6v12.99c0,5.49,4.04,9.95,9,9.95s9-4.47,9-9.95V8h6v12.99c0,8.83-6.73,16.01-15,16.01Z"/>
    <path class="cls-1" d="M210.73,37h-6v-13c0-5.51-4.1-10-9.13-10s-9.13,4.49-9.13,10v13h-6v-13c0-8.82,6.79-16,15.13-16s15.13,7.18,15.13,16v13Z"/>
    <path class="cls-1" d="M124.5,37h-8.5v-6.01h8.5c3.03,0,5.5-2.13,5.5-4.74,0-1.32-.65-2.54-1.65-3.38-.73-.62-1.67-.9-2.59-1.09-1.81-.37-3.58-.94-5.1-2.02-1.05-.74-1.98-1.67-2.72-2.72s-1.29-2.24-1.61-3.48c-.22-.85-.33-1.72-.33-2.59C116,4.91,121.16,0,127.5,0h8.5V6.01h-8.5c-3.03,0-5.5,2.22-5.5,4.94,0,1.32,.61,2.57,1.57,3.46,1.48,1.36,3.52,1.21,5.29,1.91,.33,.13,.65,.27,.96,.42,.63,.3,1.24,.66,1.8,1.07,1.05,.77,1.96,1.73,2.68,2.82s1.23,2.3,1.49,3.57c.14,.67,.21,1.36,.21,2.05,0,5.93-5.16,10.75-11.5,10.75Z"/>
    <path class="cls-1" d="M0,37v-6c6.07,0,11-5.38,11-12V0h6V19c0,9.93-7.63,18-17,18Z"/>
    <rect class="cls-1" x="53" y="0" width="6" height="37"/>
    <path class="cls-1" d="M85.28,37c-7.99,0-14.49-6.5-14.49-14.49s6.5-14.49,14.49-14.49,14.49,6.5,14.49,14.49v2.99l-22.62-.25c1.15,3.39,4.36,5.84,8.13,5.84,2.29,0,4.45-.89,6.07-2.51l2.09-2.09,4.18,4.17-2.09,2.09c-2.74,2.74-6.37,4.24-10.24,4.24Zm-7.98-17.65h1.9l14.13,.17c-1.22-3.26-4.36-5.59-8.04-5.59s-6.72,2.25-7.98,5.42Z"/>
    <g>
      <rect class="cls-1" x="62" y="8" width="6" height="29"/>
      <circle class="cls-1" cx="65" cy="3" r="3"/>
    </g>
    <path class="cls-1" d="M154,8c-3.38,0-6.49,1.21-9,3.23V0h-6V37h6v-12.98c0-5.49,4.04-9.96,9-9.96s9,4.47,9,9.96v12.98h6v-12.98c0-8.83-6.73-16.02-15-16.02Z"/>
    <g>
      <rect class="cls-1" x="172" y="8" width="6" height="29"/>
      <circle class="cls-1" cx="175" cy="3" r="3"/>
    </g>
  </g>
</svg>